<svg width="512" height="512" viewBox="0 0 512 512" fill="none" xmlns="http://www.w3.org/2000/svg">
<rect width="512" height="512" rx="16" fill="#0E0E0E"/>
<path d="M268.842 128C265.362 136.379 261.829 144.727 258.243 153.045C229.385 219.978 197.089 284.939 161.368 347.935C230.618 349.194 299.867 353.997 369.117 362.344C378.179 363.436 387.242 364.588 396.304 365.802C387.242 367.015 378.179 368.167 369.117 369.26C289.377 378.871 209.637 383.786 129.897 384L98 383.924L114.002 356.684C114.909 355.122 115.819 353.563 116.73 352.004C157.593 282.066 202.751 214.59 252.201 149.578C257.695 142.355 263.242 135.162 268.842 128Z" fill="#00FFD5" fill-opacity="0.8"/>
<path d="M414 160.996C411.535 164.297 409.048 167.575 406.54 170.832C385.138 198.631 362.154 224.863 337.597 249.537C350.095 271.625 360.739 294.777 369.521 318.992C370.57 321.884 371.593 324.791 372.589 327.714C370.533 325.398 368.501 323.067 366.498 320.721C350.773 302.306 336.684 282.954 324.226 262.67C300.867 285.09 276.147 306.162 250.061 325.881C246.774 328.366 243.465 330.83 240.135 333.272C242.599 329.972 245.086 326.694 247.594 323.436C268.481 296.308 290.872 270.669 314.763 246.516C302.795 225.087 292.557 202.666 284.064 179.248C283.015 176.355 281.992 173.447 280.996 170.523C283.053 172.84 285.084 175.172 287.087 177.519C302.254 195.281 315.894 213.916 328.023 233.416C351.936 210.317 377.284 188.638 404.073 168.388C407.361 165.903 410.669 163.438 414 160.996Z" fill="#00FFD5" fill-opacity="0.8"/>
</svg>
